<?xml version="1.0" encoding="utf-8"?>
<!-- Generator: Adobe Illustrator 16.0.0, SVG Export Plug-In . SVG Version: 6.00 Build 0)  -->
<!DOCTYPE svg PUBLIC "-//W3C//DTD SVG 1.1//EN" "http://www.w3.org/Graphics/SVG/1.1/DTD/svg11.dtd">
<svg version="1.1" id="Layer_1" focusable="false" xmlns="http://www.w3.org/2000/svg" xmlns:xlink="http://www.w3.org/1999/xlink"
	 x="0px" y="0px" width="70px" height="70px" viewBox="0 0 70 70" enable-background="new 0 0 70 70" xml:space="preserve">
<path fill="#808080" d="M59.063,43.75h-4.375c-1.208,0-2.188,0.979-2.188,2.188V61.25H8.75V17.5h19.688
	c1.208,0,2.188-0.979,2.188-2.188v-4.375c0-1.208-0.979-2.188-2.188-2.188H6.563C2.938,8.75,0,11.688,0,15.313v48.125
	C0,67.063,2.938,70,6.563,70l0,0h48.125c3.625,0,6.563-2.938,6.563-6.563l0,0v-17.5C61.25,44.729,60.271,43.75,59.063,43.75z
	 M66.719,0h-17.5c-2.922,0-4.382,3.542-2.324,5.605l4.885,4.885L18.457,43.801c-1.284,1.279-1.287,3.356-0.008,4.641
	c0.003,0.002,0.006,0.005,0.008,0.008l3.1,3.094c1.279,1.283,3.356,1.287,4.64,0.008c0.003-0.002,0.005-0.005,0.008-0.008
	l33.306-33.315l4.884,4.878C66.445,25.156,70,23.721,70,20.781v-17.5C70,1.469,68.531,0,66.719,0z"/>
</svg>
