<?xml version="1.0" encoding="utf-8"?>
<!-- Generator: Adobe Illustrator 21.0.2, SVG Export Plug-In . SVG Version: 6.00 Build 0)  -->
<svg version="1.1" id="Capa_1" xmlns="http://www.w3.org/2000/svg" xmlns:xlink="http://www.w3.org/1999/xlink" x="0px" y="0px"
	 viewBox="0 0 580 80" style="enable-background:new 0 0 580 80;" xml:space="preserve">
<style type="text/css">
	.st0{display:none;}
	.st1{display:inline;stroke:#FFFFFF;stroke-miterlimit:10;}
</style>
<g id="Capa_2" class="st0">
	<rect x="-630" y="317" class="st1" width="580" height="80"/>
	<rect x="-630" y="162" class="st1" width="580" height="80"/>
	<rect x="-630" y="0" class="st1" width="580" height="80"/>
	<rect y="317" class="st1" width="580" height="80"/>
	<rect y="162" class="st1" width="580" height="80"/>
	<rect y="0" class="st1" width="580" height="80"/>
	<rect y="-136" class="st1" width="580" height="80"/>
	<rect x="-630" y="-251" class="st1" width="580" height="80"/>
	<rect x="-630" y="-136" class="st1" width="580" height="80"/>
</g>
<g id="Capa_1_1_">
	<g>
		<g>
			<path d="M482.4,55.1c-2.8-3-5.7-6-8.6-9.1c1.4-1,2.6-2,3.8-3.2c1.1-1.1,2.3-2.4,3.4-3.7s2.3-2.7,3.4-4.2c1.2-1.5,2.5-3.1,3.9-4.8
				c0.2-0.6,0.4-1.2,0.4-1.6c0-0.8-0.3-1.5-0.8-2s-1.2-0.8-2-0.8s-1.6,0.3-2.4,1c-1.7,2-3.2,3.9-4.5,5.6s-2.6,3.3-3.9,4.8
				c-1.3,1.4-2.7,2.7-4.3,3.9c-1.5,1.2-3.4,2.2-5.5,3.1c0-2.8,0-5.5,0-8s0-5.2,0-8c-0.2-0.9-0.6-1.6-1.2-2s-1.2-0.7-1.8-0.7
				c-0.7,0-1.3,0.2-1.8,0.7s-0.9,1.2-1.2,2.2c0,6.8,0.1,13.3,0.1,19.5s0,12.5-0.1,18.9c0.1,1.1,0.5,1.9,1.2,2.4
				c0.6,0.5,1.3,0.8,2,0.8s1.4-0.3,2-0.8c0.6-0.6,0.9-1.4,1-2.5c-0.1-2.8-0.2-5.4-0.2-8s-0.1-5.3-0.1-8.1c1.3-0.5,2.4-1,3.4-1.4
				c0.3,0.4,1,1.1,1.9,2c0.9,1,2,2.1,3.2,3.4c1.2,1.3,2.5,2.7,3.8,4.1c1.3,1.4,2.6,2.8,3.8,4.1c1.2,1.3,2.3,2.4,3.2,3.4
				s1.6,1.7,1.9,2c0.4,0.4,0.8,0.7,1.3,0.9c0.5,0.2,0.9,0.3,1.3,0.3c0.8,0,1.4-0.3,2-0.8s0.8-1.2,0.8-2s-0.3-1.6-0.8-2.3
				C488.1,61.1,485.3,58.1,482.4,55.1z"/>
			<path d="M499.3,23.4c-1,0-1.8,0.4-2.5,1.1c-0.7,0.8-1,1.7-1,2.7s0.3,1.9,1,2.7c0.7,0.8,1.5,1.1,2.5,1.1s1.8-0.4,2.5-1.1
				c0.7-0.8,1.1-1.6,1.1-2.7s-0.4-2-1.1-2.7C501.1,23.8,500.3,23.4,499.3,23.4z"/>
			<path d="M502.3,39c-0.2-0.9-0.6-1.6-1.2-2s-1.2-0.7-1.8-0.7c-0.7,0-1.3,0.2-1.8,0.7s-0.9,1.2-1.2,2.2c0,4.6,0.1,9.3,0.1,14
				c0,4.8,0.1,9.5,0.1,14c0.1,1.1,0.5,1.9,1.1,2.4s1.2,0.8,1.9,0.8c0.7,0,1.4-0.3,2-0.8c0.6-0.6,0.9-1.4,1-2.5c0-4.6-0.1-9.3-0.1-14
				C502.4,48.2,502.4,43.6,502.3,39z"/>
			<path d="M536.7,63.8c-0.1-0.1-0.2-0.3-0.3-0.4V25.2c-0.3-0.9-0.7-1.6-1.3-2s-1.2-0.6-1.8-0.6s-1.2,0.3-1.8,0.8s-0.9,1.2-1.1,2.1
				c0,0.8,0,2.4,0,4.9c0,2.4,0.1,5.4,0.1,8.9c-1.1-0.3-2.3-0.5-3.4-0.6c-1.2,0-2.3-0.1-3.5-0.1c-1.3,0-2.6,0.3-4,0.7
				s-2.6,0.9-3.8,1.6c-1.2,0.6-2.4,1.5-3.5,2.5s-1.9,2.2-2.5,3.4c-0.6,1.4-1.2,2.9-1.6,4.6c-0.4,1.6-0.6,3.3-0.6,5s0.2,3.3,0.6,5
				s1.1,3.1,2,4.4c1.2,1.7,2.7,3,4.5,3.8c1.8,0.8,3.7,1.2,5.7,1.2s3.9-0.4,5.8-1.1c1.9-0.7,3.6-1.7,5.1-3c0.1,0.2,0.2,0.5,0.4,0.8
				s0.4,0.5,0.7,0.8c0.8,0.8,1.6,1.2,2.4,1.2c0.8,0,1.5-0.2,2-0.7s0.8-1.1,1-1.9c0.1-0.8-0.1-1.6-0.8-2.5
				C536.9,64.1,536.8,63.9,536.7,63.8z M530.6,57.9v1l-0.4,0.7c0,0-0.2,0.2-0.3,0.3c-0.2,0.2-0.4,0.4-0.5,0.5
				c-0.2,0.2-0.4,0.4-0.5,0.5c-0.2,0.2-0.3,0.3-0.3,0.4c-1.5,1.3-3.1,2.2-4.7,2.6c-1.6,0.4-3.4,0.5-5.4,0.3
				c-0.5-0.3-1.1-0.5-1.7-0.7l-1.5-1.5c-0.2-0.4-0.4-0.8-0.5-1.2c-0.2-0.4-0.4-0.8-0.5-1.2c-0.2-1.5-0.3-2.8-0.4-3.9s0-2.4,0.4-3.9
				c0.4-1.7,1.2-3,2.3-4.1s2.4-1.9,3.8-2.4c1.4-0.6,2.9-0.9,4.5-0.9s3.1,0.1,4.6,0.6c0.1,0.1,0.3,0.2,0.4,0.3
				c0.1,0.1,0.3,0.2,0.4,0.3l0.4,0.2c0,1.9,0.1,4,0.1,6.2C530.6,54.1,530.6,56.1,530.6,57.9z"/>
			<path d="M562.5,55.9c-0.6-1.5-1.5-2.6-2.6-3.3c-1.1-0.8-2.3-1.4-3.7-1.8c-1.3-0.5-2.7-0.9-4.1-1.2s-2.7-0.9-3.8-1.5
				c-0.1-0.2-0.3-0.4-0.4-0.5c-0.1-0.1-0.3-0.3-0.4-0.5c-0.2-0.4-0.3-0.7-0.4-0.9c0-0.8,0-1.5,0.3-2.1c0.2-0.6,0.6-1.1,1.2-1.7
				c0.1-0.1,0.3-0.2,0.5-0.2s0.3-0.1,0.5-0.2c1.3-0.2,2.6-0.2,3.9,0c1.3,0.2,2.5,0.6,3.7,1.2c1,0.5,1.8,0.6,2.6,0.4
				c0.8-0.2,1.3-0.7,1.7-1.2s0.5-1.3,0.3-2.1c-0.1-0.8-0.7-1.5-1.5-2.2c-1.9-1-3.8-1.7-6-2c-2.1-0.4-4.2-0.3-6.2,0.1
				c-1.4,0.3-2.7,1-3.8,2.1s-1.9,2.4-2.5,3.8c-0.6,1.4-0.8,2.9-0.7,4.4s0.6,2.9,1.5,4.1c1,1.3,2,2.3,3.1,2.9s2.2,1.1,3.4,1.4
				c1.1,0.4,2.3,0.7,3.5,1.1c1.2,0.3,2.4,0.9,3.7,1.7c0.1,0.2,0.3,0.4,0.5,0.6c0.2,0.2,0.3,0.4,0.5,0.6l0.4,1.3c0,0.2,0,0.5,0,0.7
				s0,0.4,0,0.7c-0.1,0.2-0.2,0.5-0.2,0.7s-0.1,0.4-0.2,0.6c-0.3,0.4-0.5,0.7-0.6,0.8s-0.2,0.3-0.3,0.3s-0.2,0.2-0.3,0.3
				s-0.4,0.3-0.8,0.6l-1.5,0.4c-1.8-0.1-3.4-0.6-4.9-1.4c-1.5-0.8-2.9-1.9-4-3.3c-0.8-0.5-1.5-0.8-2.3-0.8c-0.7,0-1.3,0.2-1.8,0.6
				c-0.5,0.4-0.8,1-0.9,1.7c-0.1,0.7,0,1.5,0.4,2.4c1.6,2.1,3.6,3.8,6.1,5s5.1,1.8,7.7,1.8c0.7,0,1.4-0.1,2.2-0.4s1.5-0.6,2.1-1
				c2.4-1.6,4.1-3.6,4.9-5.9C563.9,61.2,563.7,58.7,562.5,55.9z"/>
		</g>
	</g>
	<path d="M20.6,36.2v-9.8h2C22.1,12.7,27.1,9.6,36.3,9.8c2.8,0,5.7,0.4,8.4,1.1v9.4c-5.3,0.1-6.1,2.1-6,6.1h4.9v9.8h-4.8v17.9
		c0,2.1-0.2,4.7,2.2,5.7v9.6H20.6v-9.7c2.1-1.3,2-3,2-5.3V36.2H20.6z M47.6,41.7c0-2.3,0.2-4.1-1.9-5.7v-9.6H63
		c0.6,2.7,0.9,5.4,0.9,8.2v17c0,2.5-0.4,6.8,3.3,6.8c0.9,0,1.8-0.3,2.6-0.8v-16c0.1-2.1,0.2-4.3-2-5.6v-9.6H86v27.7
		c0,2.2-0.2,4.3,2,5.7v9.6H70.4v-2.8c-3.2,2.4-7.1,3.7-11.1,3.6c-4,0-8.2-1.4-10.2-5c-1.8-3.2-1.5-7.9-1.5-11.5L47.6,41.7z
		 M109.3,26.4h5.3v9.8h-5.3v16.4c0,4.7-0.1,6.4,5.3,7v9.8l-8,0.6c-3.6,0.3-8-0.3-10.8-3c-2.9-3-2.7-7-2.7-10.7v-20h-2v-9.9h2V18
		l16.2-4.6V26.4z M135.3,28.2c2.5-1.8,5.6-2.8,8.7-2.7c9.4,0,13.5,5.1,13.5,13.5v16c0,10-4.2,15.2-17.5,15.2
		c-7.2,0-15.1-1.2-20.8-5.8V26.2c0-2.2,0.1-4.2-2.7-5.7V11h18.8V28.2z M135.3,58.5c2.5,0.8,4,0.8,5,0.2s1-2.2,1-4.1V42
		c0-2-0.2-3.4-1-4.1s-2.5-0.8-5,0.1V58.5z M200.2,53c0,4.8-0.2,10.2-4,13.5c-3.8,3.3-9.7,3.8-14.6,3.8c-4.4,0-10.7-0.4-14.5-3
		c-5.3-3.4-5.3-8.6-5.3-14.3V41.8c0-4.6,0.1-9.7,4.1-12.8s9.2-3.5,14-3.5c4.4,0,11,0.4,14.7,2.5c5.2,3.2,5.6,8.4,5.6,13.8V53z
		 M178,54.4c0,2.3-0.2,5.8,3,5.8s3-3.5,3-5.8V42c0-2.3,0.5-6.4-3-6.4s-3,4-3,6.4V54.4z M221.8,54c0,2.2-0.2,4.6,2,5.8v9.6h-20v-9.7
		c2-1.3,2-3.2,2-5.3V26.2c0-2.2,0.2-4.4-2-5.7V11h18V54z"/>
	<path d="M244.8,29c10.3-6,17.2-3,20.7,0.6c11.8-8,20.4-2.5,22,0.2c2.3,3,2.3,7.1,2.3,10.7V54c0,2.4-0.2,4,2,5.7v9.6h-17.2
		c-1-4.4-1-9-1-13.4V45.6c0.3-5.8,0.1-9.2-6-7.6v16c0,2.5-0.1,4,2,5.8v9.6h-17.2c-1-4.4-0.9-9-0.9-13.4V45.6c0.3-5.8,0-9.2-6-7.6v16
		c0,2.4-0.2,4.3,2,5.8v9.6h-20v-9.7c2-1.3,2-3,2-5.3V41.7c0-2.3,0.1-4.3-2-5.7v-9.6h17.4L244.8,29z M318.6,66
		c-3,2.8-7.1,4.4-11.2,4.3c-7.5,0-12.2-4.8-12.2-12.3c0-8.6,5.2-11.1,12.4-13.5L318,41v-1.5c0-2-0.6-4.2-2.8-4.2
		c-2.6,0-3.1,2.1-3.1,4.2v1.8H297V30.8c5.7-3.7,12.4-5.6,19.2-5.3c4.3,0,9.8,0.7,13.5,3.4c4.5,3.6,4.5,8,4.5,13V54
		c0,2.3-0.2,4.2,2,5.8v9.6h-17.6V66z M318,51c-2.8,1.3-6.7,2-6.7,5c0,1.3,1,2.9,2.4,2.6c1.6-0.1,3.1-0.6,4.3-1.6L318,51L318,51z
		 M357.1,29c3.4-2.4,7.5-3.7,11.7-3.5c3.3,0.1,6.3,1.2,7.9,2.9c3,2.8,3.3,6,3.3,9.6v16.1c0,2.1-0.2,4.5,2,5.7v9.6h-17.3
		c-1-4.4-0.8-9-0.8-13.4V43.5c0.1-1.3,0-2.7-0.5-3.9c-1-2-3.4-2.7-5.4-1.7c-0.1,0-0.1,0.1-0.2,0.1v16.1c0,2.1-0.2,4.5,2,5.7v9.6h-20
		v-9.7c2-1.2,2-3.2,2-5.3v-13c0-2.4,0-3.9-2-5.4v-9.6h17.4L357.1,29z M403.7,54c0,2.3-0.2,4.5,2,5.8v9.6h-20.1v-9.7
		c2.1-1.3,2-3.2,2-5.3V41.7c0-2.2,0.2-4.4-2-5.7v-9.6h18.1V54z M432.1,66c-3.1,2.8-7.1,4.3-11.2,4.3c-7.5,0-12.2-4.8-12.2-12.3
		c0-8.6,5.2-11.1,12.4-13.5l10.4-3.4v-1.5c0-2-0.5-4.2-2.8-4.2c-2.6,0-3.1,2.1-3.1,4.2v1.8h-15.1V30.8c5.7-3.7,12.4-5.6,19.2-5.3
		c4.3,0,9.8,0.7,13.5,3.4c4.5,3.6,4.5,8,4.5,13V54c0,2.3-0.2,4.2,2,5.8v9.6h-17.5L432.1,66z M431.5,51c-2.8,1.3-6.7,2-6.7,5
		c0,1.3,1,2.9,2.4,2.6c1.6-0.1,3.1-0.6,4.3-1.6L431.5,51z"/>
</g>
</svg>
