<?xml version="1.0" encoding="utf-8"?>
<!-- Generator: Adobe Illustrator 21.0.2, SVG Export Plug-In . SVG Version: 6.00 Build 0)  -->
<svg version="1.1" id="Capa_1" xmlns="http://www.w3.org/2000/svg" xmlns:xlink="http://www.w3.org/1999/xlink" x="0px" y="0px"
	 viewBox="0 0 580 80" style="enable-background:new 0 0 580 80;" xml:space="preserve">
<title>logo-futbolmania</title>
<path d="M20.6,36.1V26.1h2c-0.5-14,4.5-17.3,14-17c2.9,0,5.8,0.4,8.7,1.1v9.6c-5.5,0.1-6.3,2.2-6.1,6.3h5v10.1h-5v18.3
	c0,2.2-0.2,4.8,2.3,5.8v9.8H20.6v-9.8c2.1-1.4,2-3.2,2-5.5V36.1H20.6z"/>
<path d="M48.3,41.7c0-2.4,0.1-4.2-2-5.8v-9.9h17.6c0.7,2.7,1,5.6,0.9,8.4v17.4c0,2.6-0.3,7,3.4,7c1,0,1.9-0.3,2.7-0.8V41.7
	c0.1-2.2,0.2-4.5-2-5.8v-9.9h18.5v28.4c0,2.3-0.2,4.4,2,5.8v9.8H71.7v-2.9c-3.3,2.5-7.3,3.8-11.4,3.8c-4.1,0-8.3-1.5-10.4-5.2
	c-1.9-3.4-1.5-8.1-1.5-11.8V41.7z"/>
<path d="M111.4,26.1h5.5v10.1h-5.5V53c0,4.8-0.1,6.5,5.5,7.1v10l-8.3,0.6c-3.6,0.3-8.1-0.3-10.9-3.1c-3-3-2.8-7.1-2.8-11V36.1h-2
	V26.1h2v-8.6l16.5-4.7L111.4,26.1z"/>
<path d="M138.1,27.9c2.6-1.9,5.8-2.9,9-2.7c9.6,0,13.8,5.2,13.8,13.8v16.3c0,10.3-4.4,15.7-17.9,15.7c-7.4,0-15.5-1.3-21.4-6V25.8
	c0-2.3,0.1-4.3-2.8-5.8v-9.8h19.3L138.1,27.9z M138.1,59c2.5,0.8,4.1,0.8,5,0.1s1.2-2.2,1.2-4.2V42.1c0-2-0.3-3.5-1.2-4.2
	s-2.5-0.8-5,0.1V59z"/>
<path d="M204.6,53.3c0,4.9-0.1,10.4-4.1,13.8c-4,3.4-9.9,3.8-14.9,3.8c-4.6,0-11-0.3-14.9-2.9c-5.4-3.6-5.4-8.9-5.4-14.7V41.9
	c0-4.8,0.1-9.9,4.2-13.1c4-3.1,9.4-3.6,14.4-3.6c4.5,0,11.2,0.4,15.1,2.6c5.3,3.2,5.7,8.5,5.7,14.1V53.3z M181.9,54.7
	c0,2.4-0.2,6,3.1,6s3.1-3.6,3.1-6V42c0-2.4,0.5-6.6-3.1-6.6s-3.1,4.1-3.1,6.6V54.7z"/>
<path d="M226.8,54.4c0,2.2-0.2,4.6,2,5.8v9.8h-20.6v-9.8c2.2-1.3,2-3.3,2-5.5V25.8c0-2.2,0.2-4.5-2-5.8v-9.8h18.6L226.8,54.4z"/>
<path d="M250.4,28.7c10.6-6.2,17.6-3.1,21.2,0.6c12-8.2,20.9-2.6,22.5,0.2c2.3,3,2.3,7.3,2.3,10.9v14c0,2.4-0.2,4,2,5.8v9.9h-17.6
	c-1-4.5-0.9-9.2-0.9-13.7V45.7c0.3-5.9,0.1-9.4-6.2-7.8v16.5c0,2.4-0.2,4,2,5.8v9.9h-17.6c-1-4.5-0.9-9.2-0.9-13.7V45.7
	c0.3-5.9,0.1-9.4-6.2-7.8v16.5c0,2.4-0.2,4.3,2,5.8v9.9h-20.6v-9.9c2.1-1.4,2-3.2,2-5.5v-13c0-2.3,0.2-4.4-2-5.8v-9.9h17.9
	L250.4,28.7z"/>
<path d="M326,66.7c-3.1,2.8-7.2,4.3-11.4,4.3c-7.7,0-12.6-4.8-12.6-12.6c0-8.8,5.3-11.4,12.8-13.8l10.6-3.4v-1.5
	c0-2.2-0.6-4.3-2.9-4.3c-2.7,0-3.2,2.2-3.2,4.3v1.8h-15.5V30.6c5.7-4.1,12.8-5.5,19.7-5.5c4.4,0,10.1,0.7,13.8,3.5
	c4.7,3.6,4.7,8.2,4.7,13.3v12.3c0,2.3-0.2,4.3,2,5.9v9.8h-18V66.7z M325.4,51.4c-2.9,1.2-6.9,1.9-6.9,5c0,1.4,0.9,3,2.4,2.7
	c1.6,0,3.2-0.6,4.5-1.6L325.4,51.4z"/>
<path d="M365.5,28.8c3.5-2.5,7.6-3.8,11.9-3.6c3.4,0.1,6.5,1.3,8.1,2.9c3,2.9,3.4,6.1,3.4,9.9v16.5c0,2.2-0.2,4.6,2,5.8v9.9h-17.6
	c-1-4.5-0.9-9.2-0.9-13.7V43.5c0.1-1.3,0-2.7-0.5-3.9c-1.1-2-3.6-2.8-5.6-1.7c0,0,0,0,0,0v16.5c0,2.2-0.2,4.6,2,5.8v9.8h-20.6v-9.8
	c2.2-1.3,2-3.3,2-5.5V41.4c0-2.4,0.1-3.9-2-5.5v-9.9h17.9V28.8z"/>
<path d="M413.2,54.4c0,2.2-0.2,4.5,2.1,5.8v9.8h-20.7v-9.8c2.2-1.3,2-3.3,2-5.5v-13c0-2.2,0.2-4.5-2-5.8v-9.9h18.6V54.4z"/>
<path d="M442.4,66.7c-3.2,2.8-7.3,4.4-11.5,4.3c-7.7,0-12.5-4.8-12.5-12.6c0-8.8,5.3-11.4,12.8-13.8l10.6-3.4v-1.5
	c0-2.2-0.6-4.3-2.9-4.3c-2.7,0-3.2,2.2-3.2,4.3v1.8h-15.5V30.6c5.7-4.1,12.8-5.5,19.7-5.5c4.4,0,10.1,0.7,13.8,3.5
	c4.6,3.6,4.7,8.2,4.6,13.3v12.3c0,2.3-0.2,4.3,2,5.9v9.8h-17.9V66.7z M441.7,51.4c-2.9,1.2-6.9,1.9-6.9,5c0,1.4,0.9,3,2.4,2.7
	c1.6,0,3.2-0.6,4.5-1.6L441.7,51.4z"/>
</svg>
